<svg width="418.93516" height="418" xmlns="http://www.w3.org/2000/svg">

 <g>
  <title>background</title>
  <rect fill="none" id="canvas_background" height="420" width="420.93516" y="-1" x="-1"/>
 </g>
 <g>
  <title>Layer 1</title>
  <path fill="#b8627d" id="svg_1" d="m208.07031,400.22656c-14.59375,0 -29.17968,-2.9414 -42.6875,-8.8164l-64.58984,-28.07813c-23.36719,-10.16406 -48.07422,-16.60156 -73.43359,-19.13672l-21.21094,-2.12109c-3.49219,-0.34766 -6.14844,-3.28516 -6.14844,-6.79297l0,-66.53516c0,-1.47656 0.48047,-2.91406 1.36719,-4.09375c1.58593,-2.12109 39.60156,-51.78515 97.67187,-38.86328c32.66016,7.25782 58.95703,20.83985 75.26563,30.95703c11.83984,7.34375 25.71875,11.22266 40.13672,11.22266l64.58984,0c11.13281,0 20.91797,5.89063 26.39063,14.72656l55.6289,-64.08984c10.78516,-14.40234 28.42969,-23.22266 46.90235,-23.22266l4.15625,0c2.30859,0 4.45703,1.16407 5.71484,3.09375c1.26172,1.92969 1.46094,4.3711 0.53516,6.48047l-50.3125,114.34375c-11,25.00781 -33.39844,43.89844 -59.91016,50.52735l-8.85156,2.21093l-51.49219,20.59766c-12.67188,5.06641 -26.19922,7.58984 -39.72266,7.58984zm-194.41406,-71.125l15.0625,1.50782c26.76953,2.67578 52.85156,9.47656 77.52344,20.20312l64.58594,28.07813c22.71093,9.875 48.90234,10.26171 71.89843,1.0625l51.91407,-20.76563c0.28906,-0.11328 0.58203,-0.20703 0.88281,-0.28125l9.30078,-2.32812c22.44922,-5.61329 41.41406,-21.60547 50.72266,-42.77735l45.89062,-104.29297c-11.75,1.73047 -22.5625,8.0625 -29.76562,17.66407l-61.625,71.02343c0.00781,0.26563 0.01171,0.52735 0.01171,0.79688c0,17.10547 -13.91796,31.02344 -31.02343,31.02344l-90.11719,0c-11.71484,0 -23.29297,1.8789 -34.40625,5.58203l-2.50781,-6.36719l-2.1211,-6.48828l0.34766,-0.11328c12.47266,-4.15625 25.5,-6.26953 38.6875,-6.26953l90.11719,0c9.57422,0 17.37109,-7.79297 17.37109,-17.3711s-7.79297,-17.37109 -17.37109,-17.37109l-64.58985,0c-16.96484,0 -33.33203,-4.58985 -47.33203,-13.27344c-15.40625,-9.55859 -40.24219,-22.38281 -71.02734,-29.23047c-43.97656,-9.7539 -75.6211,23.9961 -82.42578,32.04688l0,57.9414l-0.00391,0zm0,0"/>
  <path fill="#b8627d" id="svg_2" d="m269.86719,193.83984c-10.5,0 -22.27344,-3.24218 -35.23438,-9.72265c-1.57031,-0.78906 -2.78125,-2.15625 -3.375,-3.8086c-0.52734,-1.48046 -12.72656,-36.57031 6.66016,-62.51953c14.08984,-18.86328 40.58203,-27.35937 78.78516,-25.23047c3.48437,0.19141 6.26171,2.98438 6.43359,6.47657c0.13672,2.71093 2.95312,66.69922 -29.67578,88.0039c-6.9375,4.53516 -14.82031,6.80078 -23.59375,6.80078zm-26.52735,-20.67968c17.9336,8.41015 32.26954,9.23437 42.66016,2.44922c19.34766,-12.63672 23.53125,-50.14844 23.63281,-69.67188c-29.93359,-0.73047 -50.3125,6.01563 -60.77734,20.01953c-12.45313,16.67578 -7.61328,39.61328 -5.51563,47.20313zm0,0"/>
  <path fill="#b8627d" id="svg_3" d="m164.46094,104.39063c-12.10547,0 -26.07031,-2.59375 -38.25781,-11.51954c-20.67188,-15.14843 -30.17188,-43.98828 -28.24219,-85.71484c0.16406,-3.48828 2.92969,-6.29297 6.41797,-6.5c2.95312,-0.16797 72.85156,-3.89844 96.37109,31.40625c10.95313,16.43359 10.05469,37.95703 -2.66016,63.98438c-0.77343,1.58203 -2.125,2.80468 -3.77734,3.41015c-0.91797,0.33985 -13.73437,4.9336 -29.85156,4.9336zm27.49609,-11.33985l0.06641,0l-0.06641,0zm-80.55859,-78.96094c-0.58985,33.42188 7.09375,56.20313 22.87109,67.76563c18.89063,13.83984 44.6836,7.95703 52.79297,5.59375c9.27734,-20.13281 10.0625,-36.20703 2.32813,-47.81641c-14.375,-21.57812 -56.53125,-25.79687 -77.99219,-25.54297zm0,0"/>
  <path fill="#b8627d" id="svg_4" d="m217.77734,280.21875c-0.21484,0 -0.42968,-0.01172 -0.64843,-0.03125c-3.63672,-0.34375 -6.35938,-3.48828 -6.17578,-7.14062c0.40234,-8.03125 1.08984,-15.64844 2.02343,-22.86719c2.83985,-48.3125 1.375,-160.82031 -69.75781,-191.94531c-3.45312,-1.51172 -5.03125,-5.53516 -3.51953,-8.99219c1.50781,-3.44922 5.54297,-5.02344 8.99219,-3.51563c41.91797,18.33985 68.28906,64 76.24609,132.04297c0.71484,6.09766 1.25,12.10938 1.64844,17.96485c18.73437,-47.33985 47.39453,-64.06641 49.10156,-65.02344c3.28125,-1.85547 7.44531,-0.67578 9.29688,2.60156c1.83984,3.28125 0.68359,7.43359 -2.58594,9.28516c-0.72266,0.42187 -44.67188,26.79687 -55.70313,108.13281c-0.83984,13.91406 -2.05078,22.78516 -2.16406,23.59766c-0.47266,3.40625 -3.38281,5.89062 -6.75391,5.89062zm0,0"/>
 </g>
</svg>