<?xml version="1.0"?>
<svg xmlns="http://www.w3.org/2000/svg" viewBox="0 0 64 64" width="512" height="512"><g id="Busket"><path d="M60,25H56.974A4.948,4.948,0,0,0,58,22a5.006,5.006,0,0,0-5-5H42.974a4.9,4.9,0,0,0,0-6H46A5,5,0,0,0,46,1H18a5.006,5.006,0,0,0-5,5,4.948,4.948,0,0,0,1.026,3H11a5,5,0,0,0,0,10h.026a4.9,4.9,0,0,0,0,6H4a1,1,0,0,0-1,1v6a1,1,0,0,0,1,1H7.124l3.422,25.661A5.015,5.015,0,0,0,15.5,63h33a5.015,5.015,0,0,0,4.956-4.339L56.876,33H60a1,1,0,0,0,1-1V26A1,1,0,0,0,60,25ZM15,6a3,3,0,0,1,3-3H46a3,3,0,0,1,0,6H18A3,3,0,0,1,15,6ZM8,14a3,3,0,0,1,3-3H39a3,3,0,0,1,0,6H11A3,3,0,0,1,8,14Zm4,8a3,3,0,0,1,3-3H53a3,3,0,0,1,0,6H15A3,3,0,0,1,12,22ZM51.472,58.4A3.011,3.011,0,0,1,48.5,61h-33a3.011,3.011,0,0,1-2.974-2.6L9.142,33H54.858ZM59,31H5V27H59Z"/><path d="M26,43H38a4,4,0,0,0,0-8H26a4,4,0,0,0,0,8Zm0-6H38a2,2,0,0,1,0,4H26a2,2,0,0,1,0-4Z"/><path d="M16,59h6a1,1,0,0,0,0-2H16a1,1,0,0,0,0,2Z"/><path d="M26,57H25a1,1,0,0,0,0,2h1a1,1,0,0,0,0-2Z"/><path d="M32,45a1,1,0,0,0-1,1v8a1,1,0,0,0,2,0V46A1,1,0,0,0,32,45Z"/><path d="M22,55a1,1,0,0,0,1-1V46a1,1,0,0,0-2,0v8A1,1,0,0,0,22,55Z"/><path d="M41,46v8a1,1,0,0,0,2,0V46a1,1,0,0,0-2,0Z"/></g></svg>
