<?xml version="1.0"?>
<svg xmlns="http://www.w3.org/2000/svg" width="512" height="512">

 <g>
  <title>background</title>
  <rect fill="none" id="canvas_background" height="402" width="582" y="-1" x="-1"/>
 </g>
 <g>
  <title>Layer 1</title>
  <g id="svg_1">
   <g id="svg_2">
    <path fill="#b8627d" id="svg_3" d="m469.51,317c7.14,-7.97 11.49,-18.49 11.49,-30c0,-24.81 -20.19,-45 -45,-45l-87.34,0c8.65,-26.25 12.34,-61.08 12.34,-76.01l0,-14.99c0,-33.08 -26.92,-60 -60,-60l-15,0c-6.88,0 -12.88,4.68 -14.55,11.36l-8.17,32.69c-11.45,45.78 -47.8,96.29 -85.42,105.47c-6.59,-16.68 -22.86,-28.52 -41.86,-28.52l-90,0c-8.28,0 -15,6.72 -15,15l0,270c0,8.28 6.72,15 15,15l90,0c17.89,0 33.37,-10.49 40.62,-25.65l51.54,17.18c16.85,5.62 34.41,8.47 52.18,8.47l125.66,0c24.81,0 45,-20.19 45,-45c0,-5.85 -1.12,-11.45 -3.16,-16.58c19.08,-5.21 33.16,-22.7 33.16,-43.42c0,-11.51 -4.35,-22.03 -11.49,-30c7.14,-7.97 11.49,-18.49 11.49,-30s-4.35,-22.03 -11.49,-30zm-318.51,150c0,8.27 -6.73,15 -15,15l-75,0l0,-240l75,0c8.27,0 15,6.73 15,15l0,210zm255,-135l30,0c8.27,0 15,6.73 15,15c0,8.27 -6.73,15 -15,15l-30,0c-8.28,0 -15,6.72 -15,15c0,8.28 6.72,15 15,15l30,0c8.27,0 15,6.73 15,15c0,8.27 -6.73,15 -15,15l-30,0c-8.28,0 -15,6.72 -15,15c0,8.28 6.72,15 15,15c8.27,0 15,6.73 15,15c0,8.27 -6.73,15 -15,15l-125.66,0c-14.54,0 -28.91,-2.33 -42.7,-6.93l-56.64,-18.88l0,-185.61c23.53,-4.47 46.56,-19.37 67.35,-43.76c20.3,-23.82 36.76,-55.4 44.03,-84.49l5.33,-21.33l3.29,0c16.54,0 30,13.46 30,30l0,14.99c0,20.14 -6.3,58.77 -14.36,76.01l-30.64,0c-8.28,0 -15,6.72 -15,15c0,8.28 6.72,15 15,15l150,0c8.27,0 15,6.73 15,15c0,8.27 -6.73,15 -15,15l-30,0c-8.28,0 -15,6.72 -15,15c0,8.28 6.72,15 15,15z"/>
   </g>
  </g>
  <g id="svg_4">
   <g id="svg_5">
    <circle fill="#b8627d" id="svg_6" r="15" cy="437" cx="106"/>
   </g>
  </g>
  <g id="svg_7">
   <g id="svg_8">
    <path fill="#b8627d" id="svg_9" d="m316,0c-8.284,0 -15,6.716 -15,15l0,31c0,8.284 6.716,15 15,15s15,-6.716 15,-15l0,-31c0,-8.284 -6.716,-15 -15,-15z"/>
   </g>
  </g>
  <g id="svg_10">
   <g id="svg_11">
    <path fill="#b8627d" id="svg_12" d="m252.36,66.148l-21.213,-21.213c-5.857,-5.858 -15.355,-5.858 -21.213,0c-5.858,5.858 -5.858,15.355 0,21.213l21.213,21.213c5.857,5.857 15.356,5.858 21.213,0c5.858,-5.858 5.858,-15.355 0,-21.213z"/>
   </g>
  </g>
  <g id="svg_13">
   <g id="svg_14">
    <path fill="#b8627d" id="svg_15" d="m422.066,44.935c-5.857,-5.858 -15.355,-5.858 -21.213,0l-21.213,21.212c-5.858,5.858 -5.858,15.355 0,21.213c5.857,5.858 15.355,5.859 21.213,0.001l21.213,-21.213c5.858,-5.858 5.858,-15.355 0,-21.213z"/>
   </g>
  </g>
  <g id="svg_16"/>
  <g id="svg_17"/>
  <g id="svg_18"/>
  <g id="svg_19"/>
  <g id="svg_20"/>
  <g id="svg_21"/>
  <g id="svg_22"/>
  <g id="svg_23"/>
  <g id="svg_24"/>
  <g id="svg_25"/>
  <g id="svg_26"/>
  <g id="svg_27"/>
  <g id="svg_28"/>
  <g id="svg_29"/>
  <g id="svg_30"/>
 </g>
</svg>
