<svg width="128" height="128" xmlns="http://www.w3.org/2000/svg">

 <g>
  <title>background</title>
  <rect fill="none" id="canvas_background" height="420" width="420.93516" y="-1" x="-1"/>
 </g>
 <g>
  <title>Layer 1</title>
  <g id="svg_1">
   <path fill="#b8627d" id="svg_2" d="m121.693,14.088l-22.429,0l0,-7.781a1.75,1.75 0 0 0 -1.75,-1.75l-7.462,0a1.749,1.749 0 0 0 -1.75,1.75l0,7.781l-18.821,0l0,-7.781a1.749,1.749 0 0 0 -1.75,-1.75l-7.462,0a1.749,1.749 0 0 0 -1.75,1.75l0,7.781l-18.819,0l0,-7.781a1.749,1.749 0 0 0 -1.75,-1.75l-7.464,0a1.75,1.75 0 0 0 -1.75,1.75l0,7.781l-22.429,0a1.749,1.749 0 0 0 -1.75,1.75l0,105.855a1.749,1.749 0 0 0 1.75,1.75l115.386,0a1.749,1.749 0 0 0 1.75,-1.75l0,-105.855a1.749,1.749 0 0 0 -1.75,-1.75zm-29.893,-6.031l3.962,0l0,15.562l-3.962,0l0,-15.562zm-29.783,0l3.962,0l0,15.562l-3.96,0l-0.002,-15.562zm-29.783,0l3.966,0l0,15.562l-3.964,0l-0.002,-15.562zm-24.177,9.531l20.679,0l0,7.781a1.75,1.75 0 0 0 1.75,1.75l7.462,0a1.749,1.749 0 0 0 1.75,-1.75l0,-7.781l18.821,0l0,7.781a1.749,1.749 0 0 0 1.75,1.75l7.462,0a1.749,1.749 0 0 0 1.75,-1.75l0,-7.781l18.819,0l0,7.781a1.749,1.749 0 0 0 1.75,1.75l7.462,0a1.75,1.75 0 0 0 1.75,-1.75l0,-7.781l20.679,0l0,20.025l-111.884,0l0,-20.025zm0,102.355l0,-78.83l111.886,0l0,78.83l-111.886,0z"/>
   <path fill="#b8627d" id="svg_3" d="m27.66,49.015a8.033,8.033 0 1 0 8.033,8.033a8.041,8.041 0 0 0 -8.033,-8.033zm0,12.566a4.533,4.533 0 1 1 4.533,-4.533a4.537,4.537 0 0 1 -4.533,4.533z"/>
   <path fill="#b8627d" id="svg_4" d="m51.887,49.015a8.033,8.033 0 1 0 8.033,8.033a8.042,8.042 0 0 0 -8.033,-8.033zm0,12.566a4.533,4.533 0 1 1 4.533,-4.533a4.538,4.538 0 0 1 -4.533,4.533z"/>
   <path fill="#b8627d" id="svg_5" d="m76.113,49.015a8.033,8.033 0 1 0 8.033,8.033a8.042,8.042 0 0 0 -8.033,-8.033zm0,12.566a4.533,4.533 0 1 1 4.533,-4.533a4.537,4.537 0 0 1 -4.533,4.533z"/>
   <path fill="#b8627d" id="svg_6" d="m100.34,49.015a8.033,8.033 0 1 0 8.032,8.033a8.041,8.041 0 0 0 -8.032,-8.033zm0,12.566a4.533,4.533 0 1 1 4.532,-4.533a4.537,4.537 0 0 1 -4.532,4.533z"/>
   <path fill="#b8627d" id="svg_7" d="m27.66,72.5a8.034,8.034 0 1 0 8.033,8.033a8.042,8.042 0 0 0 -8.033,-8.033zm0,12.567a4.534,4.534 0 1 1 4.533,-4.534a4.538,4.538 0 0 1 -4.533,4.529l0,0.005z"/>
   <path fill="#b8627d" id="svg_8" d="m51.887,72.5a8.034,8.034 0 1 0 8.033,8.033a8.043,8.043 0 0 0 -8.033,-8.033zm0,12.567a4.534,4.534 0 1 1 4.533,-4.534a4.539,4.539 0 0 1 -4.533,4.529l0,0.005z"/>
   <path fill="#b8627d" id="svg_9" d="m76.113,72.5a8.034,8.034 0 1 0 8.033,8.033a8.043,8.043 0 0 0 -8.033,-8.033zm0,12.567a4.534,4.534 0 1 1 4.533,-4.534a4.538,4.538 0 0 1 -4.533,4.529l0,0.005z"/>
   <path fill="#b8627d" id="svg_10" d="m100.34,72.5a8.034,8.034 0 1 0 8.032,8.033a8.042,8.042 0 0 0 -8.032,-8.033zm0,12.567a4.534,4.534 0 1 1 4.532,-4.534a4.538,4.538 0 0 1 -4.532,4.529l0,0.005z"/>
   <path fill="#b8627d" id="svg_11" d="m27.66,95.976a8.033,8.033 0 1 0 8.033,8.033a8.041,8.041 0 0 0 -8.033,-8.033zm0,12.566a4.533,4.533 0 1 1 4.533,-4.533a4.537,4.537 0 0 1 -4.533,4.533z"/>
   <path fill="#b8627d" id="svg_12" d="m51.887,95.976a8.033,8.033 0 1 0 8.033,8.033a8.042,8.042 0 0 0 -8.033,-8.033zm0,12.566a4.533,4.533 0 1 1 4.533,-4.533a4.538,4.538 0 0 1 -4.533,4.533z"/>
   <path fill="#b8627d" id="svg_13" d="m76.113,95.976a8.033,8.033 0 1 0 8.033,8.033a8.042,8.042 0 0 0 -8.033,-8.033zm0,12.566a4.533,4.533 0 1 1 4.533,-4.533a4.537,4.537 0 0 1 -4.533,4.533z"/>
   <path fill="#b8627d" id="svg_14" d="m100.34,95.976a8.033,8.033 0 1 0 8.032,8.033a8.041,8.041 0 0 0 -8.032,-8.033zm0,12.566a4.533,4.533 0 1 1 4.532,-4.533a4.537,4.537 0 0 1 -4.532,4.533z"/>
  </g>
 </g>
</svg>