<svg width="512" height="512" xmlns="http://www.w3.org/2000/svg">

 <g>
  <title>background</title>
  <rect fill="none" id="canvas_background" height="420" width="420.93516" y="-1" x="-1"/>
 </g>
 <g>
  <title>Layer 1</title>
  <g id="svg_1">
   <path fill="#b8627d" id="svg_2" d="m259.408,75.868793c20.83,0 37.776,-16.946 37.776,-37.776c0.001,-20.831 -16.946,-37.777 -37.776,-37.777s-37.776,16.946 -37.776,37.776s16.946,37.777 37.776,37.777zm0,-60.553c12.559,0 22.776,10.218 22.776,22.776s-10.217,22.776 -22.776,22.776s-22.776,-10.218 -22.776,-22.776s10.217,-22.776 22.776,-22.776zm-120.409,202c17.645,0 32,-14.355 32,-32s-14.355,-32 -32,-32s-32,14.355 -32,32s14.355,32 32,32zm0,-49c9.374,0 17,7.626 17,17s-7.626,17 -17,17s-17,-7.626 -17,-17s7.626,-17 17,-17zm243.055,205.439c-11.785,0 -21.985,8.384 -24.254,19.934c-0.798,4.064 1.849,8.006 5.914,8.805s8.007,-1.849 8.805,-5.914c0.891,-4.534 4.901,-7.825 9.536,-7.825c5.358,0 9.718,4.359 9.718,9.718c0,5.358 -4.359,9.718 -9.718,9.718c-4.142,0 -7.5,3.357 -7.5,7.5s3.358,7.5 7.5,7.5c5.358,0 9.718,4.359 9.718,9.718s-4.359,9.718 -9.718,9.718c-4.822,0 -8.96,-3.591 -9.624,-8.353c-0.646,-4.634 -1.935,-8.865 -7.595,-8.865c-6.159,0 -7.978,5.802 -7.262,10.938c1.692,12.132 12.216,21.28 24.48,21.28c13.629,0 24.718,-11.088 24.718,-24.718c0,-6.69 -2.675,-12.763 -7.007,-17.218c4.332,-4.455 7.007,-10.528 7.007,-17.218c0,-13.631 -11.089,-24.718 -24.718,-24.718zm111.428,-15.694l17.962,-81.555c2.783,-12.658 -5.22,-25.233 -17.832,-28.03c-12.549,-2.783 -25.291,5.356 -27.987,17.886l-3.325,15.083c-3.191,-1.034 -6.042,-2.259 -8.984,-3.531c-8.258,-3.57 -17.619,-7.617 -35.367,-7.617c-17.745,0 -27.106,4.045 -35.365,7.614c-7.928,3.427 -14.775,6.386 -29.425,6.386c-14.644,0 -21.489,-2.959 -29.415,-6.385c-8.259,-3.569 -17.619,-7.615 -35.366,-7.615c-17.746,0 -27.107,4.046 -35.365,7.615c-7.926,3.426 -14.771,6.385 -29.415,6.385c-14.645,0 -21.489,-2.959 -29.415,-6.385c-8.257,-3.569 -17.615,-7.615 -35.355,-7.615c-17.747,0 -27.107,4.046 -35.366,7.615c-7.926,3.426 -14.771,6.385 -29.415,6.385c-5.74,0 -10.71,-0.47 -15.195,-1.437c-4.048,-0.873 -8.039,1.702 -8.912,5.75c-0.873,4.05 1.702,8.04 5.751,8.912c5.536,1.194 11.541,1.774 18.356,1.774c17.747,0 27.107,-4.046 35.366,-7.615c7.926,-3.426 14.771,-6.385 29.415,-6.385c14.637,0 21.48,2.958 29.403,6.384c8.258,3.569 17.619,7.616 35.367,7.616c17.747,0 27.107,-4.046 35.366,-7.615c7.926,-3.426 14.771,-6.385 29.414,-6.385s21.489,2.959 29.414,6.385c8.259,3.569 17.619,7.615 35.366,7.615c17.752,0 27.115,-4.046 35.376,-7.616c7.926,-3.426 14.772,-6.384 29.414,-6.384c14.644,0 21.489,2.959 29.414,6.386c3.599,1.556 7.284,3.145 11.694,4.473l-6.466,29.337c-11.635,-4.933 -24.423,-7.663 -37.836,-7.663c-53.62,0 -97.244,43.623 -97.244,97.243c0,34.58 18.147,64.998 45.414,82.243l-265.935,0c-19.093,0 -35.31,-13.078 -39.436,-31.804l-42.349,-192.225c-1.011,-4.595 1.878,-9.156 6.45,-10.17c4.5,-0.998 9.104,1.963 10.071,6.475l42.36,192.219c2.394,10.867 11.813,18.457 22.905,18.457l211.01,0c4.142,0 7.5,-3.357 7.5,-7.5s-3.358,-7.5 -7.5,-7.5l-211.011,0c-3.994,0 -7.389,-2.748 -8.256,-6.685l-42.359,-192.216c-2.689,-12.529 -15.507,-20.657 -27.978,-17.892c-12.622,2.799 -20.626,15.374 -17.842,28.035l42.35,192.23c5.655,25.658 27.895,43.577 54.085,43.577l317.77,0c0.031,0 0.063,-0.001 0.095,-0.001c53.575,-0.053 97.146,-43.655 97.146,-97.242c-0.001,-21.281 -6.878,-40.983 -18.518,-57.012zm-18.147,-66.067c0.003,-0.018 0.009,-0.036 0.013,-0.055c0,-0.003 0.001,-0.006 0.001,-0.009l4.925,-22.344c0.968,-4.52 5.565,-7.469 10.081,-6.468c4.561,1.011 7.449,5.572 6.44,10.164l-15.604,70.849c-4.555,-4.268 -9.518,-8.103 -14.826,-11.44l8.97,-40.697zm-60.58,205.322c-45.349,0 -82.244,-36.895 -82.244,-82.243c0,-45.349 36.895,-82.243 82.244,-82.243s82.243,36.895 82.243,82.243c0.001,45.348 -36.893,82.243 -82.243,82.243zm-171.256,-331.247c14.476,0 26.252,-11.777 26.252,-26.253s-11.777,-26.253 -26.252,-26.253s-26.252,11.777 -26.252,26.253s11.776,26.253 26.252,26.253zm0,-37.506c6.205,0 11.252,5.048 11.252,11.253s-5.048,11.253 -11.252,11.253s-11.252,-5.048 -11.252,-11.253s5.047,-11.253 11.252,-11.253zm201.717,243.956c-14.865,0 -26.958,12.094 -26.958,26.958l0,31.119c0,14.864 12.093,26.958 26.958,26.958s26.958,-12.094 26.958,-26.958l0,-31.119c0,-14.864 -12.093,-26.958 -26.958,-26.958zm11.958,58.077c0,6.594 -5.364,11.958 -11.958,11.958s-11.958,-5.364 -11.958,-11.958l0,-31.119c0,-6.594 5.364,-11.958 11.958,-11.958s11.958,5.364 11.958,11.958l0,31.119z"/>
  </g>
 </g>
</svg>